<svg width="1400" height="875" viewBox="0 0 1400 875" fill="none" xmlns="http://www.w3.org/2000/svg">
  <defs><linearGradient id="shell" x1="0" y1="0" x2="1400" y2="875"><stop stop-color="#DFF6E6"/><stop offset="0.32" stop-color="#F5F1E8"/><stop offset="1" stop-color="#F8F7F3"/></linearGradient><filter id="card" x="-20%" y="-20%" width="140%" height="140%"><feDropShadow dx="0" dy="18" stdDeviation="22" flood-color="#17201B" flood-opacity="0.12"/></filter></defs>
  <rect width="1400" height="875" rx="38" fill="url(#shell)"/>
  <rect x="32" y="32" width="264" height="811" rx="28" fill="white" fill-opacity="0.62" stroke="#E8E1D4"/>
  <rect x="64" y="64" width="48" height="48" rx="16" fill="#17201B"/><text x="88" y="97" text-anchor="middle" font-family="Inter, system-ui" font-size="24" font-weight="900" fill="white">A</text>
  <text x="128" y="84" font-family="Inter, system-ui" font-size="22" font-weight="900" fill="#17201B">AgencyOS</text><text x="128" y="108" font-family="Inter, system-ui" font-size="13" fill="#66736B">Consulting operations</text>
  <g font-family="Inter, system-ui" font-size="16" font-weight="800"><rect x="64" y="164" width="200" height="46" rx="14" fill="#17201B"/><text x="92" y="193" fill="white">Dashboard</text><text x="92" y="255" fill="#546159">Projects</text><text x="92" y="309" fill="#546159">Tickets</text><text x="92" y="363" fill="#546159">Time</text><text x="92" y="417" fill="#546159">Reports</text><text x="92" y="471" fill="#546159">Customers</text><text x="92" y="525" fill="#546159">Team</text></g>
  <rect x="64" y="686" width="200" height="112" rx="22" fill="#E5F7DB" stroke="#CCEABD"/><text x="88" y="725" font-family="Inter, system-ui" font-size="16" font-weight="900" fill="#17201B">Real agency workflow</text><text x="88" y="754" font-family="Inter, system-ui" font-size="13" fill="#536357">Projects → tickets →</text><text x="88" y="775" font-family="Inter, system-ui" font-size="13" fill="#536357">time → reports.</text>
  <text x="334" y="82" font-family="Inter, system-ui" font-size="13" font-weight="900" letter-spacing="2" fill="#738076">DASHBOARD</text><text x="334" y="146" font-family="Inter, system-ui" font-size="52" font-weight="900" letter-spacing="-3" fill="#17201B">Agency operations that connect work, people, and money.</text>
  <rect x="1158" y="64" width="166" height="48" rx="16" fill="#FF6B35"/><text x="1241" y="94" text-anchor="middle" font-family="Inter, system-ui" font-size="16" font-weight="900" fill="white">New project</text>
  <g filter="url(#card)"><rect x="334" y="186" width="990" height="206" rx="32" fill="#17201B"/><text x="374" y="240" font-family="Inter, system-ui" font-size="13" font-weight="900" letter-spacing="2" fill="#A6EF82">MOCO + TRELLO + CLOCKIFY CORE</text><text x="374" y="292" font-family="Inter, system-ui" font-size="43" font-weight="900" letter-spacing="-2" fill="white">Run consulting delivery from project cockpit to reports.</text><text x="374" y="340" font-family="Inter, system-ui" font-size="20" fill="#DCE8DF">Track project health, assign ticket work, log billable time, and understand effort.</text><rect x="1090" y="226" width="184" height="126" rx="24" fill="white" fill-opacity="0.1" stroke="white" stroke-opacity="0.16"/><text x="1118" y="270" font-family="Inter, system-ui" font-size="17" font-weight="900" fill="white">Today’s loop</text><text x="1118" y="302" font-family="Inter, system-ui" font-size="14" fill="#DCE8DF">Project → ticket</text><text x="1118" y="326" font-family="Inter, system-ui" font-size="14" fill="#DCE8DF">→ time → report</text></g>
  <g filter="url(#card)"><rect x="334" y="420" width="230" height="126" rx="24" fill="white"/><rect x="374" y="455" width="64" height="12" rx="6" fill="#FF6B35"/><text x="374" y="502" font-family="Inter, system-ui" font-size="36" font-weight="900" fill="#17201B">4</text><text x="374" y="525" font-family="Inter, system-ui" font-size="15" fill="#66736B">Active projects</text><rect x="588" y="420" width="230" height="126" rx="24" fill="white"/><rect x="628" y="455" width="64" height="12" rx="6" fill="#FF6B35"/><text x="628" y="502" font-family="Inter, system-ui" font-size="36" font-weight="900" fill="#17201B">21</text><text x="628" y="525" font-family="Inter, system-ui" font-size="15" fill="#66736B">Open tickets</text><rect x="842" y="420" width="230" height="126" rx="24" fill="white"/><rect x="882" y="455" width="64" height="12" rx="6" fill="#FF6B35"/><text x="882" y="502" font-family="Inter, system-ui" font-size="36" font-weight="900" fill="#17201B">142h</text><text x="882" y="525" font-family="Inter, system-ui" font-size="15" fill="#66736B">Billable hours</text><rect x="1096" y="420" width="228" height="126" rx="24" fill="white"/><rect x="1136" y="455" width="64" height="12" rx="6" fill="#FF6B35"/><text x="1136" y="502" font-family="Inter, system-ui" font-size="36" font-weight="900" fill="#17201B">€17k</text><text x="1136" y="525" font-family="Inter, system-ui" font-size="15" fill="#66736B">Earned so far</text></g>
  <g filter="url(#card)"><rect x="334" y="574" width="610" height="238" rx="28" fill="white"/><text x="374" y="622" font-family="Inter, system-ui" font-size="24" font-weight="900" fill="#17201B">Active projects</text><rect x="374" y="650" width="530" height="52" rx="16" fill="#F8F6EF"/><rect x="374" y="718" width="530" height="52" rx="16" fill="#F8F6EF"/><rect x="374" y="786" width="420" height="10" rx="5" fill="#E8E1D4"/><text x="398" y="683" font-family="Inter, system-ui" font-size="17" font-weight="850" fill="#17201B">Website relaunch</text><text x="398" y="751" font-family="Inter, system-ui" font-size="17" font-weight="850" fill="#17201B">CRM implementation</text><rect x="785" y="666" width="74" height="22" rx="11" fill="#FFF1C7"/><rect x="785" y="734" width="58" height="22" rx="11" fill="#DEF7D4"/></g>
  <g filter="url(#card)"><rect x="974" y="574" width="350" height="238" rx="28" fill="white"/><text x="1014" y="622" font-family="Inter, system-ui" font-size="24" font-weight="900" fill="#17201B">Priority work</text><rect x="1014" y="650" width="270" height="58" rx="16" fill="#F8F6EF"/><rect x="1014" y="724" width="270" height="58" rx="16" fill="#F8F6EF"/><text x="1034" y="682" font-family="Inter, system-ui" font-size="15" font-weight="850" fill="#17201B">Fix billing flow</text><text x="1034" y="756" font-family="Inter, system-ui" font-size="15" font-weight="850" fill="#17201B">Review launch scope</text></g>
</svg>
